<svg width="42" height="42" viewBox="0 0 42 42" fill="none" xmlns="http://www.w3.org/2000/svg">
<g clip-path="url(#clip0_196_278)">
<path d="M24.8517 9.17258C25.0234 9.17384 25.195 9.17258 25.3667 9.17109C26.4401 9.16942 27.4786 9.33147 28.5048 9.65236C28.5699 9.67247 28.635 9.69259 28.7021 9.71332C29.8223 10.0696 30.8115 10.5713 31.7812 11.2344C31.8248 11.264 31.8683 11.2937 31.9132 11.3243C32.9674 12.0557 34.2243 13.1306 34.8281 14.2813C34.8609 14.5378 34.8754 14.6797 34.7295 14.8965C34.5259 15.0283 34.3423 14.991 34.1103 14.9581C33.7415 14.8711 33.3932 14.7306 33.0419 14.5907C32.7546 14.5009 32.7546 14.5009 32.4843 14.5938C32.4585 14.6711 32.4328 14.7484 32.4062 14.8281C32.4732 14.9601 32.4732 14.9601 32.5869 15.0918C32.6305 15.1473 32.6741 15.2028 32.719 15.26C32.8302 15.3977 32.9415 15.5355 33.0529 15.6732C34.8022 17.8813 35.8443 20.7351 35.6093 23.5781C35.5275 24.1304 35.3207 24.5287 34.9062 24.9063C34.6512 25.0338 34.4841 25.0273 34.2031 24.9844C33.8713 24.6087 33.6854 24.0974 33.4902 23.6416C32.7627 21.9893 31.9046 20.4507 30.7656 19.0469C30.7104 18.9786 30.6552 18.9103 30.5983 18.84C28.8402 16.7758 26.1161 15.8544 23.4853 15.6289C23.334 15.6209 23.1826 15.6143 23.0312 15.6094C22.9652 15.6063 22.8993 15.6031 22.8313 15.5999C19.6109 15.5166 16.6847 16.8455 14.3767 19.0216C14.198 19.183 14.0763 19.2758 13.8369 19.3203C13.6208 19.2736 13.5566 19.2196 13.4218 19.0469C13.3812 18.5699 13.5621 18.0581 13.7001 17.6065C13.7208 17.539 13.7414 17.4715 13.7626 17.4019C14.7435 14.2961 16.8825 11.8622 19.7521 10.3649C20.3335 10.072 20.9244 9.83815 21.5468 9.64747C21.6051 9.62948 21.6633 9.61148 21.7233 9.59294C22.7548 9.29507 23.781 9.1633 24.8517 9.17258Z" fill="white"/>
<path d="M26.3123 19.5938C26.7582 19.6077 26.9992 19.7378 27.3426 20.0137C27.4076 20.0658 27.4076 20.0658 27.4739 20.119C27.609 20.2287 27.7422 20.3404 27.8748 20.4531C27.9165 20.4885 27.9582 20.5238 28.0012 20.5603C28.5691 21.0478 29.0618 21.5752 29.5154 22.1719C29.5683 22.2401 29.6212 22.3082 29.6757 22.3785C31.5519 24.8668 32.3495 28.0329 31.9276 31.1172C31.4569 34.2206 29.8381 37.0658 27.3136 38.9609C25.9889 39.9072 23.8812 41.2327 22.1717 41C22.0057 40.8682 22.0057 40.8682 21.9373 40.6875C21.9667 40.3582 22.0614 40.2181 22.3035 39.999C22.5238 39.7887 22.7294 39.5786 22.9188 39.3398C22.9575 39.2911 22.9963 39.2424 23.0363 39.1921C23.1266 39.0473 23.1266 39.0473 23.082 38.8723C23.0652 38.8268 23.0484 38.7813 23.0311 38.7344C22.7738 38.6488 22.6217 38.665 22.3649 38.7457C22.2964 38.7664 22.228 38.7871 22.1575 38.8084C22.0865 38.8307 22.0154 38.853 21.9422 38.876C20.8969 39.2034 19.8881 39.3115 18.7977 39.3057C18.7409 39.3055 18.6842 39.3053 18.6257 39.3052C17.758 39.301 16.9212 39.2647 16.0779 39.0469C16.0149 39.0309 15.9519 39.015 15.8869 38.9986C13.51 38.3811 13.51 38.3811 12.8748 37.4062C12.7056 37.1087 12.6817 36.8913 12.7186 36.5469C12.8868 36.3207 12.9802 36.2433 13.2604 36.1942C13.3487 36.1936 13.4371 36.1929 13.5282 36.1923C13.6273 36.1906 13.7263 36.1889 13.8284 36.1871C13.8807 36.1869 13.933 36.1867 13.9869 36.1864C14.262 36.1849 14.537 36.178 14.8121 36.1718C14.8671 36.1707 14.9221 36.1696 14.9788 36.1684C17.9093 36.1053 21.2131 35.549 23.3436 33.3438C23.3951 33.2922 23.4467 33.2406 23.4998 33.1875C23.5514 33.1875 23.6029 33.1875 23.6561 33.1875C23.6762 33.1421 23.6964 33.0967 23.7171 33.0499C23.8203 32.8603 23.9363 32.7325 24.0858 32.5771C24.5245 32.0916 24.873 31.5538 25.2186 31C25.2493 30.9509 25.2801 30.9019 25.3118 30.8513C26.8882 28.299 27.3683 25.2567 26.7811 22.3281C26.6318 21.6995 26.4657 21.0631 26.2211 20.4641C26.1264 20.2206 26.1366 20.0081 26.1561 19.75C26.2076 19.6984 26.2592 19.6469 26.3123 19.5938Z" fill="white"/>
<path d="M13.5536 10.8096C13.7342 11 13.7342 11 13.7742 11.2374C13.7181 11.6722 13.515 11.9532 13.2753 12.3135C13.1812 12.4601 13.0874 12.6069 12.9939 12.7539C12.9238 12.8634 12.9238 12.8634 12.8522 12.9752C11.1624 15.6604 9.91906 18.7796 10.6412 21.9872C11.1269 23.9308 12.0191 25.7429 13.3436 27.25C13.4006 27.3165 13.4576 27.3829 13.5164 27.4514C15.1214 29.2874 17.2709 30.4482 19.6266 30.9969C19.7001 31.0144 19.7736 31.032 19.8494 31.0501C19.9478 31.0725 19.9478 31.0725 20.0481 31.0953C20.239 31.1636 20.3279 31.2325 20.453 31.3906C20.4969 31.5811 20.4969 31.5811 20.453 31.7813C18.7735 33.0691 15.8585 33.0472 13.8539 32.839C13.522 32.7938 13.1992 32.7233 12.8749 32.6406C12.7859 32.6192 12.7859 32.6192 12.6952 32.5974C10.5983 32.0802 8.78725 31.0164 7.24987 29.5156C7.19025 29.4608 7.13063 29.4061 7.06921 29.3496C5.85289 28.2028 4.9885 26.7073 4.43737 25.1406C4.41966 25.0907 4.40195 25.0408 4.3837 24.9893C3.99395 23.8716 3.7844 22.7302 3.73425 21.5469C3.73102 21.4813 3.7278 21.4158 3.72448 21.3482C3.68597 19.7957 3.90075 17.9212 4.67175 16.5469C4.89275 16.4364 5.05251 16.4438 5.29675 16.4688C5.57597 16.7347 5.61744 17.0826 5.69226 17.4453C5.79122 17.9527 5.79122 17.9527 5.99987 18.4219C6.19323 18.3832 6.19323 18.3832 6.3905 18.3438C6.40453 18.3012 6.41856 18.2587 6.43301 18.2148C7.1262 16.1227 7.95887 14.3118 9.5155 12.7188C9.57703 12.6524 9.63856 12.586 9.70196 12.5176C10.0705 12.1296 10.4632 11.7962 10.8925 11.4785C10.9401 11.4432 10.9877 11.4078 11.0367 11.3714C11.7197 10.8797 12.7171 10.3424 13.5536 10.8096Z" fill="white"/>
<path d="M22.3476 20.9414C23.1222 21.716 23.5696 22.6694 23.5808 23.7676C23.531 24.88 23.138 25.8053 22.3262 26.5758C21.5281 27.2336 20.6068 27.5445 19.5751 27.4648C18.4188 27.3127 17.5985 26.8448 16.8429 25.9566C16.2426 25.1362 16.0981 24.2138 16.1925 23.2207C16.3439 22.2517 16.8655 21.3699 17.6406 20.7656C19.2494 19.8007 20.7937 19.8656 22.3476 20.9414Z" fill="white"/>
<path d="M17.1719 1C17.2492 1 17.3266 1 17.4062 1C17.4473 1.14684 17.4883 1.29369 17.5293 1.44056C17.5647 1.56781 17.6003 1.69504 17.6359 1.82226C17.7208 2.12698 17.8043 2.43177 17.8814 2.73859C18.1646 3.87276 18.1646 3.87276 18.9688 4.67188C19.6868 4.99059 20.4615 5.15157 21.2228 5.33151C21.3138 5.35402 21.4049 5.37653 21.4987 5.39972C21.5812 5.41941 21.6636 5.43911 21.7486 5.4594C21.811 5.48311 21.8733 5.50682 21.9375 5.53125C21.9633 5.60859 21.9891 5.68594 22.0156 5.76562C21.9393 5.78447 21.8629 5.80332 21.7842 5.82273C21.497 5.89395 21.2103 5.96688 20.9237 6.04028C20.8003 6.07164 20.6768 6.10255 20.5532 6.13298C19.2744 6.42602 19.2744 6.42602 18.3187 7.27136C18.0156 7.84037 17.8816 8.47385 17.7285 9.0957C17.6969 9.22014 17.6652 9.34455 17.6333 9.46893C17.5563 9.77064 17.4808 10.0727 17.4062 10.375C17.3289 10.3492 17.2516 10.3234 17.1719 10.2969C17.1061 10.107 17.0563 9.92797 17.0117 9.73291C16.9825 9.61531 16.9534 9.49772 16.9242 9.38013C16.8796 9.19494 16.8354 9.00965 16.7916 8.82425C16.4976 7.55302 16.4976 7.55302 15.6209 6.62691C15.2497 6.44981 14.85 6.36115 14.4521 6.26367C14.2758 6.21881 14.0995 6.17385 13.9233 6.12878C13.839 6.10751 13.7548 6.08624 13.668 6.06432C13.3226 5.97406 12.9814 5.87188 12.6406 5.76562C12.6406 5.68828 12.6406 5.61094 12.6406 5.53125C12.7174 5.5124 12.7942 5.49356 12.8733 5.47414C13.1615 5.40302 13.4492 5.33007 13.7369 5.25659C13.8608 5.2252 13.9848 5.19429 14.109 5.16389C14.9117 4.96693 15.566 4.76995 16.1807 4.18848C16.5758 3.52998 16.7327 2.73837 16.918 2.00098C16.955 1.85588 16.955 1.85588 16.9927 1.70786C17.0528 1.472 17.1125 1.23605 17.1719 1Z" fill="white"/>
<path d="M36 29.9844C36.0773 30.0102 36.1547 30.0359 36.2344 30.0625C36.2978 30.2229 36.2978 30.2229 36.3461 30.4324C36.3647 30.5079 36.3833 30.5834 36.4025 30.6613C36.4399 30.8207 36.4769 30.9802 36.5136 31.1398C36.6523 31.6991 36.7987 31.9939 37.3068 32.3004C37.6301 32.4342 37.9569 32.527 38.2949 32.6162C38.3599 32.6338 38.4248 32.6514 38.4918 32.6695C38.6506 32.7124 38.8097 32.7547 38.9688 32.7969C38.9688 32.8484 38.9688 32.9 38.9688 32.9531C38.8979 32.972 38.8979 32.972 38.8256 32.9912C38.6094 33.0492 38.3936 33.1086 38.1777 33.168C38.0663 33.1976 38.0663 33.1976 37.9525 33.2278C37.4666 33.3628 37.0549 33.4945 36.7251 33.8992C36.5491 34.2963 36.474 34.7211 36.3824 35.1443C36.3666 35.2128 36.3508 35.2812 36.3345 35.3518C36.3208 35.4144 36.3072 35.4769 36.2931 35.5414C36.2737 35.5896 36.2543 35.6378 36.2344 35.6875C36.157 35.7133 36.0797 35.7391 36 35.7656C35.9898 35.7212 35.9796 35.6767 35.9691 35.6309C35.9217 35.4265 35.873 35.2226 35.8242 35.0186C35.8082 34.9486 35.7922 34.8787 35.7757 34.8066C35.6169 34.1009 35.6169 34.1009 35.1653 33.5611C34.765 33.345 34.3301 33.2362 33.8906 33.1289C33.7887 33.1031 33.7887 33.1031 33.6846 33.0767C33.5191 33.0349 33.3533 32.9939 33.1875 32.9531C33.1875 32.9016 33.1875 32.85 33.1875 32.7969C33.2827 32.7714 33.3778 32.7459 33.4759 32.7197C33.6027 32.6852 33.7296 32.6507 33.8564 32.6162C33.9502 32.5912 33.9502 32.5912 34.0458 32.5657C34.8363 32.3666 34.8363 32.3666 35.4471 31.855C35.6264 31.5312 35.7027 31.1716 35.79 30.8145C35.8106 30.7346 35.8312 30.6547 35.8524 30.5724C35.9028 30.3767 35.9519 30.1807 36 29.9844Z" fill="white"/>
<path d="M5.84375 31.7812C5.89531 31.7812 5.94688 31.7812 6 31.7812C6.01215 31.8309 6.02431 31.8805 6.03683 31.9316C6.09322 32.1585 6.15157 32.3849 6.20996 32.6113C6.23859 32.7284 6.23859 32.7284 6.26779 32.8478C6.38977 33.3141 6.49388 33.6454 6.85938 33.9688C7.06889 34.0586 7.24753 34.1228 7.46484 34.1787C7.57594 34.2102 7.68702 34.2417 7.7981 34.2733C7.85142 34.2879 7.90475 34.3025 7.95969 34.3175C8.1551 34.3722 8.34702 34.4355 8.53906 34.501C8.6293 34.5316 8.71953 34.5622 8.8125 34.5938C8.73438 34.75 8.73438 34.75 8.57393 34.8058C8.50482 34.8226 8.43571 34.8395 8.3645 34.8568C8.28897 34.876 8.21344 34.8953 8.13562 34.9151C7.97619 34.9545 7.81668 34.9935 7.6571 35.0323C7.14519 35.1633 6.78869 35.2692 6.49652 35.7369C6.36022 36.0755 6.26883 36.4177 6.18066 36.7715C6.16309 36.8402 6.14552 36.9089 6.12741 36.9796C6.08446 37.1478 6.04201 37.316 6 37.4844C5.92266 37.4586 5.84531 37.4328 5.76562 37.4062C5.70812 37.2686 5.70812 37.2686 5.66827 37.0904C5.65282 37.0258 5.63736 36.9612 5.62143 36.8946C5.60617 36.8266 5.59091 36.7586 5.5752 36.6885C5.44627 36.115 5.32609 35.6763 4.85925 35.281C4.51127 35.097 4.16536 35.0125 3.7832 34.9258C3.67459 34.8999 3.67459 34.8999 3.56378 34.8736C3.38645 34.8315 3.20897 34.7904 3.03125 34.75C3.03125 34.6727 3.03125 34.5953 3.03125 34.5156C3.07613 34.5054 3.12101 34.4952 3.16724 34.4847C3.37281 34.4374 3.57799 34.3886 3.7832 34.3398C3.8538 34.3238 3.9244 34.3078 3.99713 34.2913C4.51234 34.1672 4.88491 34.0247 5.23492 33.6065C5.41289 33.2727 5.49866 32.9437 5.58496 32.5771C5.6176 32.4431 5.65045 32.3091 5.68353 32.1752C5.6975 32.1164 5.71147 32.0576 5.72586 31.9971C5.76562 31.8594 5.76562 31.8594 5.84375 31.7812Z" fill="white"/>
</g>
<defs>
<clipPath id="clip0_196_278">
<rect width="40" height="40" fill="white" transform="translate(1 1)"/>
</clipPath>
</defs>
</svg>
