<svg width="100" height="100" viewBox="0 0 100 100" fill="none" xmlns="http://www.w3.org/2000/svg">
<g clip-path="url(#clip0_114_610)">
<path d="M59.6292 20.4314C60.0585 20.4346 60.4875 20.4314 60.9168 20.4277C63.6002 20.4235 66.1966 20.8287 68.7621 21.6309C68.9248 21.6812 69.0875 21.7314 69.2551 21.7833C72.0558 22.6741 74.5289 23.9281 76.953 25.5859C77.0619 25.6601 77.1708 25.7342 77.283 25.8106C79.9186 27.6392 83.0609 30.3264 84.5702 33.2031C84.6522 33.8445 84.6885 34.1991 84.3238 34.7412C83.8147 35.0707 83.3557 34.9774 82.7757 34.8953C81.8539 34.6777 80.983 34.3265 80.1047 33.9767C79.3864 33.7522 79.3864 33.7522 78.7108 33.9844C78.6464 34.1777 78.5819 34.3711 78.5155 34.5703C78.6829 34.9002 78.6829 34.9002 78.9672 35.2295C79.0762 35.3682 79.1852 35.5069 79.2975 35.6499C79.5756 35.9943 79.8538 36.3387 80.1322 36.6829C84.5055 42.2031 87.1107 49.3377 86.5233 56.4453C86.3188 57.8261 85.8018 58.8217 84.7655 59.7656C84.128 60.0844 83.7101 60.0681 83.0077 59.9609C82.1782 59.0217 81.7135 57.7436 81.2255 56.604C79.4068 52.4733 77.2615 48.6268 74.4139 45.1172C74.276 44.9465 74.138 44.7758 73.9958 44.5999C69.6005 39.4395 62.7903 37.136 56.2132 36.5723C55.835 36.5523 55.4566 36.5357 55.078 36.5234C54.9131 36.5156 54.7482 36.5078 54.5783 36.4998C46.5273 36.2915 39.2116 39.6137 33.4418 45.0539C32.9951 45.4574 32.6907 45.6894 32.0922 45.8008C31.5519 45.684 31.3914 45.5489 31.0546 45.1172C30.953 43.9247 31.4052 42.6452 31.7504 41.5161C31.8019 41.3474 31.8535 41.1786 31.9066 41.0048C34.3587 33.2402 39.7063 27.1556 46.8802 23.4123C48.3337 22.6799 49.8109 22.0954 51.3671 21.6187C51.5126 21.5737 51.6582 21.5287 51.8082 21.4823C54.3871 20.7376 56.9525 20.4082 59.6292 20.4314Z" fill="url(#paint0_linear_114_610)"/>
<path d="M63.2811 46.4844C64.3958 46.5193 64.9984 46.8444 65.8567 47.5342C66.0192 47.6645 66.0192 47.6645 66.185 47.7974C66.5228 48.0718 66.8557 48.351 67.1873 48.6328C67.2916 48.7212 67.3958 48.8096 67.5033 48.9007C68.9229 50.1195 70.1546 51.4379 71.2889 52.9297C71.421 53.1001 71.5532 53.2706 71.6894 53.4462C76.38 59.667 78.374 67.5823 77.3191 75.293C76.1424 83.0515 72.0955 90.1646 65.7842 94.9022C62.4725 97.268 57.2033 100.582 52.9295 100C52.5145 99.6704 52.5145 99.6704 52.3436 99.2188C52.4171 98.3955 52.6538 98.0452 53.2591 97.4976C53.8097 96.9718 54.3237 96.4465 54.7972 95.8496C54.8941 95.7278 54.991 95.6059 55.0909 95.4804C55.3167 95.1183 55.3167 95.1183 55.2053 94.6808C55.1633 94.567 55.1212 94.4532 55.0779 94.3359C54.4349 94.1219 54.0546 94.1624 53.4124 94.3642C53.2414 94.4159 53.0703 94.4676 52.894 94.521C52.7164 94.5767 52.5388 94.6325 52.3558 94.6899C49.7425 95.5084 47.2206 95.7788 44.4944 95.7642C44.3525 95.7637 44.2106 95.7633 44.0644 95.7629C41.8953 95.7526 39.8033 95.6618 37.6951 95.1172C37.5375 95.0773 37.38 95.0375 37.2176 94.9965C31.2752 93.4527 31.2752 93.4527 29.6873 91.0156C29.2644 90.2719 29.2044 89.7283 29.2967 88.8672C29.7173 88.3019 29.9507 88.1082 30.6511 87.9855C30.8721 87.9839 31.0931 87.9823 31.3208 87.9807C31.5684 87.9764 31.816 87.9722 32.0712 87.9678C32.202 87.9672 32.3328 87.9666 32.4676 87.966C33.1553 87.9624 33.8428 87.945 34.5304 87.9295C34.668 87.9268 34.8055 87.924 34.9473 87.9211C42.2735 87.7633 50.5329 86.3725 55.8592 80.8594C55.9881 80.7305 56.117 80.6016 56.2498 80.4688C56.3787 80.4688 56.5076 80.4688 56.6404 80.4688C56.6908 80.3552 56.7411 80.2417 56.793 80.1247C57.051 79.6509 57.3409 79.3311 57.7146 78.9429C58.8115 77.729 59.6826 76.3845 60.5467 75C60.6236 74.8774 60.7004 74.7547 60.7797 74.6284C64.7207 68.2476 65.921 60.6417 64.4529 53.3203C64.0798 51.7487 63.6646 50.1576 63.0529 48.6603C62.8163 48.0514 62.8417 47.5201 62.8904 46.875C63.0193 46.7461 63.1482 46.6172 63.2811 46.4844Z" fill="url(#paint1_linear_114_610)"/>
<path d="M31.3842 24.5239C31.8359 25 31.8359 25 31.9358 25.5936C31.7954 26.6805 31.2877 27.383 30.6884 28.2837C30.4533 28.6503 30.2189 29.0172 29.985 29.3846C29.8096 29.6585 29.8096 29.6585 29.6308 29.938C25.4063 36.6511 22.2979 44.4489 24.1033 52.4679C25.3175 57.3269 27.548 61.8573 30.8593 65.625C31.0018 65.7912 31.1443 65.9573 31.2911 66.1285C35.3038 70.7184 40.6774 73.6204 46.5667 74.9921C46.7505 75.036 46.9343 75.0799 47.1236 75.1251C47.3696 75.1811 47.3696 75.1811 47.6206 75.2382C48.0978 75.4089 48.3201 75.5813 48.6327 75.9766C48.7426 76.4526 48.7426 76.4526 48.6327 76.9531C44.4339 80.1728 37.1464 80.1179 32.1349 79.5975C31.3053 79.4844 30.4983 79.3082 29.6874 79.1016C29.4651 79.048 29.4651 79.048 29.2382 78.9934C23.9961 77.7004 19.4684 75.041 15.6249 71.2891C15.4759 71.1521 15.3268 71.0151 15.1733 70.874C12.1325 68.007 9.9715 64.2683 8.59368 60.3516C8.54939 60.2267 8.50511 60.1019 8.45949 59.9733C7.48511 57.1789 6.96125 54.3255 6.83586 51.3672C6.82781 51.2033 6.81975 51.0394 6.81145 50.8705C6.71517 46.9893 7.25211 42.3029 9.17961 38.8672C9.73212 38.5909 10.1315 38.6096 10.7421 38.6719C11.4402 39.3368 11.5438 40.2066 11.7309 41.1133C11.9783 42.3817 11.9783 42.3817 12.4999 43.5547C12.9833 43.458 12.9833 43.458 13.4765 43.3594C13.5116 43.253 13.5466 43.1467 13.5828 43.0371C15.3158 37.8068 17.3974 33.2796 21.289 29.2969C21.4428 29.1309 21.5967 28.965 21.7551 28.7941C22.6766 27.8239 23.6583 26.9905 24.7314 26.1963C24.8504 26.1079 24.9694 26.0195 25.0921 25.9284C26.7994 24.6993 29.293 23.356 31.3842 24.5239Z" fill="url(#paint2_linear_114_610)"/>
<path d="M53.369 49.8535C55.3055 51.79 56.4239 54.1736 56.4521 56.9191C56.3275 59.7001 55.3449 62.0132 53.3156 63.9397C51.3203 65.584 49.017 66.3612 46.4377 66.1621C43.5471 65.7817 41.4963 64.612 39.6071 62.3917C38.1065 60.3406 37.7453 58.0345 37.9813 55.5519C38.3597 53.1294 39.6638 50.9249 41.6015 49.4141C45.6236 47.0018 49.4843 47.1641 53.369 49.8535Z" fill="url(#paint3_linear_114_610)"/>
<path d="M40.4297 0C40.623 0 40.8164 0 41.0156 0C41.1182 0.367105 41.2208 0.734223 41.3231 1.1014C41.4118 1.41953 41.5007 1.73761 41.5897 2.05564C41.802 2.81745 42.0108 3.57943 42.2035 4.34647C42.9115 7.1819 42.9115 7.1819 44.9219 9.17969C46.717 9.97648 48.6538 10.3789 50.5569 10.8288C50.7845 10.8851 51.0121 10.9413 51.2466 10.9993C51.4529 11.0485 51.6591 11.0978 51.8716 11.1485C52.0274 11.2078 52.1832 11.2671 52.3438 11.3281C52.4082 11.5215 52.4727 11.7148 52.5391 11.9141C52.3481 11.9612 52.1572 12.0083 51.9605 12.0568C51.2425 12.2349 50.5257 12.4172 49.8092 12.6007C49.5007 12.6791 49.192 12.7564 48.883 12.8325C45.686 13.565 45.686 13.565 43.2968 15.6784C42.5389 17.1009 42.204 18.6846 41.8213 20.2393C41.7422 20.5504 41.6629 20.8614 41.5833 21.1723C41.3907 21.9266 41.2021 22.6817 41.0156 23.4375C40.8223 23.373 40.6289 23.3086 40.4297 23.2422C40.2651 22.7674 40.1407 22.3199 40.0291 21.8323C39.9563 21.5383 39.8835 21.2443 39.8106 20.9503C39.699 20.4873 39.5885 20.0241 39.4791 19.5606C38.7441 16.3825 38.7441 16.3825 36.5521 14.0673C35.6243 13.6245 34.6249 13.4029 33.6304 13.1592C33.1896 13.047 32.7489 12.9346 32.3082 12.822C32.0976 12.7688 31.8869 12.7156 31.6699 12.6608C30.8065 12.4351 29.9534 12.1797 29.1016 11.9141C29.1016 11.7207 29.1016 11.5273 29.1016 11.3281C29.2935 11.281 29.4855 11.2339 29.6833 11.1854C30.4038 11.0075 31.1231 10.8252 31.8422 10.6415C32.1519 10.563 32.462 10.4857 32.7724 10.4097C34.7793 9.91733 36.4149 9.42488 37.9517 7.97119C38.9394 6.32496 39.3318 4.34591 39.7949 2.50244C39.8874 2.1397 39.8874 2.1397 39.9818 1.76964C40.1321 1.18 40.2814 0.590127 40.4297 0Z" fill="url(#paint4_linear_114_610)"/>
<path d="M87.5 72.4609C87.6934 72.5254 87.8867 72.5898 88.0859 72.6562C88.2445 73.0574 88.2445 73.0574 88.3652 73.5809C88.4118 73.7698 88.4583 73.9586 88.5063 74.1531C88.5997 74.5517 88.6922 74.9505 88.784 75.3494C89.1308 76.7477 89.4968 77.4848 90.7669 78.2509C91.5753 78.5856 92.3923 78.8175 93.2373 79.0405C93.3997 79.0845 93.5621 79.1284 93.7294 79.1737C94.1266 79.2809 94.5242 79.3867 94.9219 79.4922C94.9219 79.6211 94.9219 79.75 94.9219 79.8828C94.7447 79.9299 94.7447 79.9299 94.564 79.978C94.0235 80.1231 93.4839 80.2715 92.9443 80.4199C92.6656 80.4939 92.6656 80.4939 92.3813 80.5695C91.1666 80.9069 90.1372 81.2361 89.3127 82.2479C88.8726 83.2409 88.685 84.3027 88.456 85.3607C88.4164 85.5319 88.3769 85.7031 88.3362 85.8795C88.3021 86.0359 88.268 86.1923 88.2328 86.3535C88.1843 86.474 88.1359 86.5946 88.0859 86.7188C87.8926 86.7832 87.6992 86.8477 87.5 86.9141C87.4745 86.8029 87.449 86.6917 87.4228 86.5772C87.3043 86.0664 87.1824 85.5564 87.0605 85.0464C87.0205 84.8715 86.9805 84.6967 86.9392 84.5165C86.5422 82.7524 86.5422 82.7524 85.4132 81.4027C84.4125 80.8625 83.3252 80.5906 82.2266 80.3223C81.9716 80.2577 81.9716 80.2577 81.7116 80.1918C81.2977 80.0872 80.8833 79.9848 80.4688 79.8828C80.4688 79.7539 80.4688 79.625 80.4688 79.4922C80.7067 79.4285 80.9446 79.3648 81.1897 79.2992C81.5069 79.213 81.824 79.1268 82.1411 79.0405C82.3754 78.978 82.3754 78.978 82.6145 78.9143C84.5908 78.4164 84.5908 78.4164 86.1178 77.1376C86.5661 76.3281 86.7568 75.4291 86.9751 74.5361C87.0266 74.3365 87.0781 74.1368 87.1311 73.9311C87.2569 73.4417 87.3798 72.9517 87.5 72.4609Z" fill="url(#paint5_linear_114_610)"/>
<path d="M12.1094 76.9531C12.2383 76.9531 12.3672 76.9531 12.5 76.9531C12.5304 77.0772 12.5608 77.2012 12.5921 77.329C12.7331 77.8963 12.8789 78.4623 13.0249 79.0283C13.0965 79.321 13.0965 79.321 13.1695 79.6196C13.4744 80.7853 13.7347 81.6135 14.6484 82.4219C15.1722 82.6464 15.6188 82.8071 16.1621 82.9468C16.4399 83.0255 16.7176 83.1043 16.9952 83.1833C17.1286 83.2197 17.2619 83.2562 17.3992 83.2937C17.8877 83.4304 18.3676 83.5888 18.8477 83.7524C19.0732 83.829 19.2988 83.9055 19.5312 83.9844C19.3359 84.375 19.3359 84.375 18.9348 84.5145C18.762 84.5566 18.5893 84.5987 18.4113 84.642C18.2224 84.6901 18.0336 84.7382 17.8391 84.7878C17.4405 84.8861 17.0417 84.9838 16.6428 85.0807C15.363 85.4083 14.4717 85.673 13.7413 86.8423C13.4005 87.6889 13.1721 88.5443 12.9517 89.4287C12.9077 89.6004 12.8638 89.7721 12.8185 89.949C12.7112 90.3694 12.605 90.79 12.5 91.2109C12.3066 91.1465 12.1133 91.082 11.9141 91.0156C11.7703 90.6714 11.7703 90.6714 11.6707 90.226C11.632 90.0645 11.5934 89.903 11.5536 89.7366C11.5154 89.5665 11.4773 89.3964 11.438 89.2212C11.1157 87.7876 10.8152 86.6909 9.64813 85.7025C8.77818 85.2425 7.91339 85.0312 6.95801 84.8145C6.68647 84.7499 6.68647 84.7499 6.40945 84.684C5.96613 84.5789 5.52241 84.4759 5.07812 84.375C5.07812 84.1816 5.07812 83.9883 5.07812 83.7891C5.19032 83.7636 5.30252 83.7381 5.41811 83.7118C5.93202 83.5936 6.44498 83.4716 6.95801 83.3496C7.1345 83.3096 7.31099 83.2695 7.49283 83.2283C8.78085 82.918 9.71227 82.5617 10.5873 81.5163C11.0322 80.6817 11.2466 79.8593 11.4624 78.9429C11.544 78.6078 11.6261 78.2729 11.7088 77.9381C11.7437 77.7911 11.7787 77.6441 11.8146 77.4927C11.9141 77.1484 11.9141 77.1484 12.1094 76.9531Z" fill="url(#paint6_linear_114_610)"/>
</g>
<defs>
<linearGradient id="paint0_linear_114_610" x1="58.8228" y1="20.4277" x2="58.8228" y2="60.0304" gradientUnits="userSpaceOnUse">
<stop stop-color="#684D89"/>
<stop offset="1" stop-color="#CFBEE4"/>
</linearGradient>
<linearGradient id="paint1_linear_114_610" x1="53.427" y1="46.4844" x2="53.427" y2="100.067" gradientUnits="userSpaceOnUse">
<stop stop-color="#684D89"/>
<stop offset="1" stop-color="#CFBEE4"/>
</linearGradient>
<linearGradient id="paint2_linear_114_610" x1="27.758" y1="24.0754" x2="27.758" y2="79.8644" gradientUnits="userSpaceOnUse">
<stop stop-color="#684D89"/>
<stop offset="1" stop-color="#CFBEE4"/>
</linearGradient>
<linearGradient id="paint3_linear_114_610" x1="47.1836" y1="47.714" x2="47.1836" y2="66.1927" gradientUnits="userSpaceOnUse">
<stop stop-color="#684D89"/>
<stop offset="1" stop-color="#CFBEE4"/>
</linearGradient>
<linearGradient id="paint4_linear_114_610" x1="40.8203" y1="0" x2="40.8203" y2="23.4375" gradientUnits="userSpaceOnUse">
<stop stop-color="#684D89"/>
<stop offset="1" stop-color="#CFBEE4"/>
</linearGradient>
<linearGradient id="paint5_linear_114_610" x1="87.6953" y1="72.4609" x2="87.6953" y2="86.9141" gradientUnits="userSpaceOnUse">
<stop stop-color="#684D89"/>
<stop offset="1" stop-color="#CFBEE4"/>
</linearGradient>
<linearGradient id="paint6_linear_114_610" x1="12.3047" y1="76.9531" x2="12.3047" y2="91.2109" gradientUnits="userSpaceOnUse">
<stop stop-color="#684D89"/>
<stop offset="1" stop-color="#CFBEE4"/>
</linearGradient>
<clipPath id="clip0_114_610">
<rect width="100" height="100" fill="white"/>
</clipPath>
</defs>
</svg>
